# xmcd
#
# Track frame offsets: 
#        183
#        17488
#        35535
#
# Disc length: 683 seconds
#
# Revision: 1
# Processed by: cddbd v1.5.2PL0 Copyright (c) Steve Scherf et al.
# Submitted via: ExactAudioCopy v0.95b3
#
DISCID=1802a903
DTITLE=Rattles - No Way Out [0275-2]
DYEAR=1993
DGENRE=Rock
TTITLE0=No Way Out (Radio Edit)
TTITLE1=Mirror In The Sky (Secret Mix)
TTITLE2=Breakfast In Bed
EXTD=by R.F.
EXTT0=
EXTT1=
EXTT2=
PLAYORDER=
